PathFileType	4	(X/Y/Z)	max-elbow-flex-wide_P0_1-783_filt_butterworth_LSTM.trc
DataRate	CameraRate	NumFrames	NumMarkers	Units	OrigDataRate	OrigDataStartFrame	OrigNumFrames
60	60	63	3	m	60	196	782
Frame#	Time	r_acromion			r_humerus_epicondyle			r_radius_styloid		
X1	Y1	Z1	X2	Y2	Z2	X3	Y3	Z3
196	3.2667	0.014100000000000001	0.8257999999999999	0.17200000000000004	0.25529999999999997	0.7039	0.24830000000000008	0.1955	0.9109	0.18610000000000004
197	3.2833	0.013900000000000023	0.8255999999999999	0.17160000000000009	0.2549	0.7035	0.2482000000000001	0.1935	0.9101999999999999	0.1855000000000001
198	3.3	0.013900000000000023	0.8253999999999999	0.17110000000000014	0.25470000000000004	0.7033	0.2481000000000001	0.19179999999999997	0.9096	0.18500000000000016
199	3.3167	0.014000000000000012	0.8251999999999999	0.17040000000000022	0.25460000000000005	0.7032	0.2480000000000001	0.19030000000000002	0.909	0.1848000000000002
200	3.3333	0.01419999999999999	0.8251	0.16990000000000005	0.25460000000000005	0.7030999999999998	0.24790000000000012	0.18910000000000005	0.9084999999999999	0.1846000000000002
201	3.35	0.014400000000000024	0.825	0.16960000000000008	0.25460000000000005	0.7029999999999998	0.24770000000000014	0.18790000000000007	0.9078999999999999	0.18450000000000022
202	3.3667	0.014300000000000035	0.8249	0.16960000000000008	0.25470000000000004	0.7026999999999999	0.24760000000000015	0.18669999999999998	0.9076	0.18420000000000025
203	3.3833	0.014000000000000012	0.8249	0.16970000000000007	0.25470000000000004	0.7022999999999999	0.24760000000000015	0.1856	0.9072	0.18400000000000005
204	3.4	0.013400000000000023	0.8247	0.16980000000000006	0.25460000000000005	0.7019	0.24760000000000015	0.18490000000000006	0.9069	0.18380000000000007
205	3.4167	0.012800000000000034	0.8245	0.16990000000000005	0.25440000000000007	0.7016	0.24760000000000015	0.1844	0.9064999999999999	0.1836000000000001
206	3.4333	0.012300000000000033	0.8244	0.17000000000000004	0.2542	0.7013	0.24770000000000014	0.18410000000000004	0.9060999999999999	0.1835000000000001
207	3.45	0.0121	0.8243	0.17000000000000004	0.254	0.7010999999999998	0.24770000000000014	0.18390000000000006	0.9057999999999999	0.18340000000000012
208	3.4667	0.01200000000000001	0.8242	0.17000000000000004	0.254	0.7009999999999998	0.24780000000000013	0.18369999999999997	0.9056	0.18330000000000013
209	3.4833	0.01200000000000001	0.8242	0.17000000000000004	0.2541	0.7010999999999998	0.24780000000000013	0.18359999999999999	0.9055	0.18330000000000013
210	3.5	0.0121	0.8239999999999998	0.17000000000000004	0.2542	0.7013	0.2480000000000001	0.1834	0.9056	0.18340000000000012
211	3.5167	0.012300000000000033	0.8236999999999999	0.16990000000000005	0.2542	0.7015	0.2482000000000001	0.18330000000000002	0.9057999999999999	0.1836000000000001
212	3.5333	0.012500000000000011	0.8233999999999999	0.16980000000000006	0.254	0.7015	0.24850000000000005	0.18320000000000003	0.9059999999999999	0.18380000000000007
213	3.55	0.0126	0.8230999999999999	0.16980000000000006	0.25370000000000004	0.7015	0.24880000000000024	0.18300000000000005	0.9060999999999999	0.18400000000000005
214	3.5667	0.0126	0.8229	0.16980000000000006	0.25329999999999997	0.7014	0.24900000000000022	0.18290000000000006	0.9061999999999999	0.18420000000000025
215	3.5833	0.012700000000000045	0.8229	0.17000000000000004	0.253	0.7013	0.2492000000000002	0.18269999999999997	0.9061999999999999	0.18430000000000024
216	3.6	0.012700000000000045	0.823	0.1705000000000002	0.25270000000000004	0.7012	0.24940000000000018	0.1825	0.9060999999999999	0.18440000000000023
217	3.6167	0.0126	0.8230999999999999	0.17100000000000015	0.25250000000000006	0.7013	0.24950000000000017	0.1825	0.9058999999999999	0.18440000000000023
218	3.6333	0.0126	0.8231999999999999	0.1714000000000001	0.25240000000000007	0.7014	0.24960000000000016	0.18259999999999998	0.9058999999999999	0.18430000000000024
219	3.65	0.0126	0.8232999999999999	0.17180000000000006	0.25240000000000007	0.7015	0.24960000000000016	0.18290000000000006	0.9058999999999999	0.18410000000000004
220	3.6667	0.012700000000000045	0.8231999999999999	0.17230000000000023	0.25250000000000006	0.7015	0.24960000000000016	0.18310000000000004	0.9058999999999999	0.18370000000000009
221	3.6833	0.012700000000000045	0.8230999999999999	0.17290000000000016	0.25260000000000005	0.7015	0.24960000000000016	0.18330000000000002	0.9058999999999999	0.18330000000000013
222	3.7	0.012800000000000034	0.8230999999999999	0.17320000000000013	0.25260000000000005	0.7014	0.24950000000000017	0.18359999999999999	0.9057	0.18320000000000014
223	3.7167	0.012700000000000045	0.8232999999999999	0.17310000000000014	0.25270000000000004	0.7014	0.24950000000000017	0.18379999999999996	0.9055	0.18340000000000012
224	3.7333	0.0126	0.8234999999999999	0.17280000000000018	0.25270000000000004	0.7013	0.24950000000000017	0.18410000000000004	0.9053	0.18370000000000009
225	3.75	0.012300000000000033	0.8236999999999999	0.17230000000000023	0.2528	0.7010999999999998	0.24970000000000014	0.1845	0.9052	0.18400000000000005
226	3.7667	0.01200000000000001	0.8237999999999999	0.17190000000000005	0.2528	0.7008999999999999	0.2500000000000001	0.18510000000000004	0.9053	0.18420000000000025
227	3.7833	0.0116	0.8237999999999999	0.17170000000000007	0.2529	0.7005999999999999	0.2503000000000001	0.18590000000000007	0.9056	0.18430000000000024
228	3.8	0.011400000000000021	0.8237999999999999	0.17180000000000006	0.2529	0.7002999999999999	0.25070000000000026	0.18700000000000006	0.9058999999999999	0.18440000000000023
229	3.8167	0.011300000000000032	0.8236999999999999	0.17220000000000024	0.253	0.7001999999999999	0.25090000000000023	0.18830000000000002	0.9063999999999999	0.18440000000000023
230	3.8333	0.011200000000000043	0.8235999999999999	0.1727000000000002	0.2532	0.7001	0.2510000000000002	0.19010000000000005	0.9068	0.18430000000000024
231	3.85	0.011300000000000032	0.8234999999999999	0.17300000000000015	0.25340000000000007	0.7001999999999999	0.25090000000000023	0.1926	0.9074	0.18420000000000025
232	3.8667	0.011700000000000044	0.8234999999999999	0.17320000000000013	0.25370000000000004	0.7002999999999999	0.25060000000000004	0.19540000000000002	0.9079999999999999	0.18420000000000025
233	3.8833	0.012200000000000044	0.8234999999999999	0.17330000000000012	0.2539	0.7003999999999999	0.2502000000000001	0.19830000000000003	0.9087999999999998	0.18440000000000023
234	3.9	0.012800000000000034	0.8235999999999999	0.1734000000000001	0.2541	0.7004999999999999	0.24980000000000013	0.20089999999999997	0.9095	0.1848000000000002
235	3.9167	0.013300000000000034	0.8236999999999999	0.1735000000000001	0.2542	0.7003999999999999	0.24960000000000016	0.20310000000000006	0.9102999999999999	0.18530000000000013
236	3.9333	0.013600000000000001	0.8239999999999998	0.1736000000000001	0.25429999999999997	0.7003999999999999	0.24960000000000016	0.20520000000000005	0.9111	0.18580000000000008
237	3.95	0.013800000000000034	0.8243	0.17370000000000008	0.25440000000000007	0.7003999999999999	0.24980000000000013	0.20750000000000002	0.9119999999999999	0.18640000000000023
238	3.9667	0.013900000000000023	0.8246	0.17390000000000005	0.25450000000000006	0.7003999999999999	0.2501000000000001	0.21020000000000005	0.9131	0.18710000000000016
239	3.9833	0.014000000000000012	0.8248	0.17400000000000004	0.25470000000000004	0.7007999999999999	0.25040000000000007	0.21340000000000003	0.9144999999999999	0.18800000000000006
240	4.0	0.014100000000000001	0.8249	0.17430000000000023	0.255	0.7014	0.25060000000000004	0.2168	0.9161999999999999	0.18900000000000017
241	4.0167	0.01419999999999999	0.8248	0.17480000000000018	0.25540000000000007	0.7021	0.25070000000000026	0.22020000000000006	0.9180999999999999	0.19000000000000006
242	4.0333	0.01419999999999999	0.8248	0.1754000000000001	0.2559	0.7027999999999999	0.25080000000000024	0.22350000000000003	0.9198999999999999	0.19090000000000018
243	4.05	0.01419999999999999	0.8248	0.17620000000000025	0.2564000000000001	0.7036	0.25070000000000026	0.22699999999999998	0.9218	0.1916000000000001
244	4.0667	0.014000000000000012	0.8248	0.17700000000000016	0.257	0.7043999999999999	0.25050000000000006	0.23109999999999997	0.9236	0.19220000000000026
245	4.0833	0.013800000000000034	0.8248	0.17790000000000006	0.25760000000000005	0.7053	0.2501000000000001	0.23570000000000002	0.9253	0.1927000000000002
246	4.1	0.013600000000000001	0.8248	0.17880000000000018	0.258	0.7061	0.24980000000000013	0.24080000000000001	0.9268999999999998	0.19310000000000016
247	4.1167	0.013500000000000012	0.8248	0.17930000000000013	0.2581	0.7067999999999999	0.24970000000000014	0.24619999999999997	0.9281999999999999	0.1936000000000001
248	4.1333	0.013500000000000012	0.8249	0.17970000000000008	0.2579	0.7076	0.24960000000000016	0.2519	0.9293	0.19420000000000026
249	4.15	0.013400000000000023	0.825	0.18000000000000005	0.25750000000000006	0.7083999999999999	0.24970000000000014	0.2581	0.9303999999999999	0.1948000000000002
250	4.1667	0.013000000000000012	0.825	0.18050000000000022	0.25680000000000003	0.7093	0.24990000000000012	0.26480000000000004	0.9319	0.1957000000000001
251	4.1833	0.012400000000000022	0.8251	0.18140000000000012	0.256	0.7102999999999999	0.2501000000000001	0.2714	0.9339	0.1968000000000002
252	4.2	0.011900000000000022	0.825	0.18240000000000023	0.25560000000000005	0.7113	0.25040000000000007	0.2772	0.9360999999999999	0.19800000000000006
253	4.2167	0.0116	0.825	0.18340000000000012	0.25550000000000006	0.7123999999999999	0.25050000000000006	0.2824	0.9382999999999999	0.19930000000000014
254	4.2333	0.0116	0.825	0.18430000000000024	0.2559	0.7134	0.25070000000000026	0.28780000000000006	0.9401999999999999	0.20030000000000026
255	4.25	0.011800000000000033	0.8251999999999999	0.18500000000000016	0.25650000000000006	0.7144999999999999	0.2510000000000002	0.29390000000000005	0.9415	0.20120000000000016
256	4.2667	0.01200000000000001	0.8253999999999999	0.1856000000000001	0.2571	0.7157	0.25150000000000017	0.30069999999999997	0.9422999999999999	0.20220000000000005
257	4.2833	0.012200000000000044	0.8256999999999999	0.18590000000000007	0.25739999999999996	0.7169999999999999	0.2523000000000001	0.3075	0.9424999999999999	0.20330000000000015
258	4.3	0.0121	0.8258999999999999	0.18620000000000025	0.25739999999999996	0.7182999999999999	0.2532000000000002	0.3133	0.9420999999999999	0.20470000000000022
